<?xml version="1.0" standalone="no"?>
<!DOCTYPE svg PUBLIC "-//W3C//DTD SVG 1.1//EN" "http://www.w3.org/Graphics/SVG/1.1/DTD/svg11.dtd" >
<svg xmlns="http://www.w3.org/2000/svg">
<metadata></metadata>
<defs>
<font id="lao_sangam_mnregular" horiz-adv-x="1146" >
<font-face units-per-em="2048" ascent="1536" descent="-512" />
<missing-glyph horiz-adv-x="614" />
<glyph horiz-adv-x="0" />
<glyph horiz-adv-x="682" />
<glyph unicode=" "  horiz-adv-x="614" />
<glyph unicode="&#x09;" horiz-adv-x="614" />
<glyph unicode="&#xa0;" horiz-adv-x="614" />
<glyph unicode="!" horiz-adv-x="376" d="M123 0v197h174v-197h-174zM123 838v587h174v-585l-39 -480h-96z" />
<glyph unicode="&#x22;" horiz-adv-x="622" d="M123 901v524h139v-524h-139zM403 901v524h136v-524h-136z" />
<glyph unicode="#" horiz-adv-x="1503" d="M127 473l18 100h295l62 310h-303l22 100h297l82 451h113l-80 -451h315l78 451h117l-86 -451h352l-12 -63l-11 -37h-344l-55 -310h346l-12 -63l-10 -37h-342l-90 -473h-115l88 473h-311l-88 -473h-111l84 473h-299zM555 573h313l62 310h-314z" />
<glyph unicode="$" horiz-adv-x="1155" d="M125 420h147q20 -111 83 -190.5t163 -104.5v532q-70 31 -135.5 65t-116.5 79t-81.5 103.5t-30.5 135.5q0 70 28.5 130.5t77.5 105.5t115.5 73.5t142.5 36.5v150h137v-150q68 -6 131.5 -30.5t114.5 -66.5t87 -102.5t50 -139.5h-141q-57 178 -242 204v-491q76 -31 149 -66 t131 -80t94 -106.5t36 -145.5q0 -96 -37 -164.5t-95.5 -114.5t-131 -71.5t-146.5 -31.5v-232h-137v236q-152 29 -259 146.5t-134 289.5zM299 1047q0 -84 62.5 -138.5t156.5 -95.5v436q-102 -16 -160.5 -72t-58.5 -130zM655 117q123 12 194 80.5t71 160.5q0 41 -23 76 t-60.5 65.5t-84.5 55.5t-97 47v-485z" />
<glyph unicode="%" horiz-adv-x="1728" d="M129 1049q0 70 25.5 131t69.5 106t104.5 71.5t128.5 26.5t128 -26.5t105 -71.5t70.5 -106.5t25.5 -130.5q0 -70 -25.5 -131.5t-70.5 -107.5t-105.5 -72.5t-127.5 -26.5q-68 0 -128.5 26.5t-104.5 72.5t-69.5 107.5t-25.5 131.5zM254 1049q0 -45 15.5 -84t43 -69 t64.5 -47.5t80 -17.5t79.5 17.5t64.5 47.5t44.5 69t16.5 84t-16.5 83.5t-44.5 68.5t-64.5 47.5t-79.5 17.5t-80 -17.5t-64.5 -47.5t-43 -68.5t-15.5 -83.5zM377 0l840 1366h149l-840 -1366h-149zM973 319q0 70 25.5 131.5t69.5 107.5t103.5 72.5t128.5 26.5 q68 0 128.5 -26.5t104.5 -72.5t69.5 -107.5t25.5 -131.5t-25.5 -131t-69.5 -107t-104.5 -72.5t-128.5 -26.5q-70 0 -129 26.5t-103 72.5t-69.5 107t-25.5 131zM1098 319q0 -45 15 -83.5t43 -68.5t64.5 -47.5t79.5 -17.5t80 17.5t65 47.5t44 68.5t16 83.5t-16 84t-44 69 t-65 47.5t-80 17.5t-79.5 -17.5t-64.5 -47.5t-43 -69t-15 -84z" />
<glyph unicode="&#x26;" horiz-adv-x="1404" d="M127 346q0 70 29.5 131.5t77 115.5t108.5 104.5t127 97.5q-78 117 -120 215t-42 176q0 53 22.5 105t64.5 93t104.5 67t142.5 26q84 0 146.5 -27t104.5 -70t63.5 -95t21.5 -103q0 -63 -26.5 -119.5t-69.5 -107t-99.5 -97.5t-117.5 -92q63 -86 139 -180t180 -215 q31 59 49.5 127.5t26.5 146.5h141q-10 -104 -38.5 -202.5t-80.5 -184.5q53 -59 117 -125.5t127 -132.5h-190q-37 39 -70 72.5t-66 74.5q-78 -82 -184 -135t-237 -53q-125 0 -211 35t-139.5 90t-77 125t-23.5 137zM272 344q0 -61 26 -107.5t69 -75t97 -43t111 -14.5 q98 0 181.5 40t146.5 112q-102 115 -190 220.5t-164 205.5q-55 -41 -104.5 -81t-88.5 -81t-61.5 -85t-22.5 -91zM451 1188q0 -53 31.5 -128t101.5 -183q51 37 96 73.5t79 74.5t53 77t19 80q0 82 -56 119.5t-136 37.5q-37 0 -70.5 -10t-59.5 -28.5t-42 -47t-16 -65.5z" />
<glyph unicode="'" horiz-adv-x="337" d="M123 901v524h135v-524h-135z" />
<glyph unicode="(" horiz-adv-x="587" d="M123 670q0 256 79 499.5t238 454.5h109q-125 -233 -182.5 -469.5t-57.5 -484.5q0 -246 57.5 -483.5t182.5 -467.5h-109q-160 205 -238.5 450t-78.5 501z" />
<glyph unicode=")" horiz-adv-x="548" d="M37 -281q129 229 187.5 466t58.5 485t-58.5 484.5t-187.5 469.5h110q162 -211 240 -454.5t78 -499.5q0 -258 -79 -502t-239 -449h-110z" />
<glyph unicode="*" horiz-adv-x="978" d="M123 1139l47 143l285 -121l-27 305h156l-23 -303l279 119l55 -147l-309 -72q47 -53 105.5 -114.5t105.5 -110.5l-121 -93l-168 254l-174 -254l-121 93l213 225z" />
<glyph unicode="+" horiz-adv-x="1247" d="M127 707v114h455v443h114v-443h459v-114h-459v-443h-114v443h-455z" />
<glyph unicode="," horiz-adv-x="415" d="M117 -225q66 27 83 67.5t17 106.5v51h-74v197h193v-248q0 -92 -46 -153.5t-122 -90.5z" />
<glyph unicode="-" horiz-adv-x="665" d="M125 500v145h457v-145h-457z" />
<glyph unicode="." horiz-adv-x="395" d="M123 0v197h192v-197h-192z" />
<glyph unicode="/" horiz-adv-x="610" d="M0 -41l477 1507h133l-471 -1507h-139z" />
<glyph unicode="0" d="M94 696q0 160 30 289t90 220t148.5 139.5t204.5 48.5q117 0 206 -48.5t148.5 -139.5t90 -220t30.5 -289t-30.5 -288.5t-90 -220t-148.5 -139.5t-206 -48t-205 48t-148 139.5t-90 220.5t-30 288zM244 696q0 -154 25.5 -262t68.5 -179t102.5 -103.5t126.5 -32.5 q68 0 127.5 32.5t102.5 103.5t68.5 179.5t25.5 261.5q0 154 -25.5 263.5t-68.5 180t-102.5 103.5t-127.5 33t-127 -33t-102 -103.5t-68.5 -180t-25.5 -263.5z" />
<glyph unicode="1" d="M211 872v146q123 0 214 40t152.5 97t91 122.5t29.5 115.5h144v-1393h-144v1120q-96 -137 -211.5 -192.5t-275.5 -55.5z" />
<glyph unicode="2" d="M115 975q10 94 49 172t100.5 132t144.5 84t183 30q104 0 184 -32t134.5 -86t81 -124t26.5 -143q0 -86 -32 -153t-83 -123t-118.5 -104t-137.5 -98q-63 -43 -121.5 -86t-105.5 -88t-84 -97t-57 -114h739v-145h-901v137q23 84 71 153.5t108 130t129 112t134 96.5 q57 41 112.5 82t98.5 85t69.5 90t26.5 97q0 72 -21.5 126t-58 91t-87 55.5t-107.5 18.5q-137 0 -223 -79t-95 -220h-159z" />
<glyph unicode="3" d="M94 408h158q16 -88 52 -147.5t82 -94.5t98.5 -50.5t103.5 -15.5q55 0 108.5 19.5t96.5 55.5t69.5 87t26.5 115q0 61 -22.5 113.5t-63.5 91.5t-99.5 61.5t-130.5 22.5h-90v133h90q70 0 118 19.5t78 52t43 72.5t13 83q0 115 -67.5 180.5t-184.5 65.5q-66 0 -115.5 -23.5 t-84.5 -62.5t-56.5 -88t-27.5 -101h-154q14 78 46 149t85 125t129 87t178 33q94 0 168 -27t126.5 -74t80 -111.5t27.5 -140.5q0 -102 -51.5 -181t-149.5 -124q119 -43 192.5 -128t73.5 -228q0 -98 -36.5 -172t-98 -124t-143.5 -75.5t-174 -25.5q-197 0 -324 111.5 t-170 316.5z" />
<glyph unicode="4" d="M76 344v170l624 860h154v-911h203v-119h-203v-344h-143v344h-635zM201 463h510v717z" />
<glyph unicode="5" d="M94 342h156q35 -117 120 -179.5t183 -62.5q70 0 130 27t106.5 73t73 108.5t26.5 135.5q0 74 -29 136.5t-76 107.5t-107.5 69.5t-123.5 24.5q-72 0 -149.5 -33.5t-124.5 -93.5h-144l92 719h736v-121h-621q-12 -113 -26.5 -218t-28.5 -220q43 33 88 51.5t86 27.5t74.5 11 t52.5 2q98 0 181 -35.5t143.5 -99t94 -147.5t33.5 -181q0 -90 -29.5 -173t-90 -148.5t-152.5 -104t-217 -38.5q-166 0 -290 90t-167 272z" />
<glyph unicode="6" d="M104 618q0 201 35 346.5t99.5 240.5t156.5 141.5t205 46.5q92 0 164 -28t124 -74t84 -105.5t42 -122.5h-140q-8 39 -30.5 77t-57 67.5t-81 48t-101.5 18.5q-104 0 -174 -58.5t-112 -147.5t-59 -193.5t-19 -196.5q31 61 75.5 102t94 66.5t97.5 36t85 10.5q100 0 182 -36 t138.5 -98.5t87 -147.5t30.5 -183q0 -90 -29.5 -172t-86 -143.5t-137.5 -97t-183 -35.5q-223 0 -356.5 161.5t-133.5 476.5zM293 432q0 -72 24.5 -132t66.5 -105t96.5 -70t113.5 -25q61 0 113.5 26t90.5 70t59.5 104t21.5 128q0 66 -20.5 126t-58.5 106.5t-91.5 73 t-116.5 26.5q-76 0 -132.5 -31t-93 -78t-55 -105.5t-18.5 -113.5z" />
<glyph unicode="7" d="M92 1253v121h950v-114q-111 -139 -204 -274.5t-166.5 -285t-126.5 -320.5t-82 -380h-156q25 168 69 332t111.5 320.5t161.5 307t219 293.5h-776z" />
<glyph unicode="8" d="M109 385q0 111 61 203t160 145q-86 49 -137.5 127t-51.5 172q0 74 34 139.5t91.5 114.5t134 77t164.5 28t166 -28t135.5 -77t91 -114.5t33.5 -139.5q0 -92 -51 -171t-137 -128q100 -53 161.5 -145t61.5 -203q0 -84 -36 -157.5t-98.5 -129t-146 -87t-180.5 -31.5 q-96 0 -179 31.5t-144.5 87t-97 129t-35.5 157.5zM258 385q0 -59 24.5 -111.5t65.5 -90.5t97.5 -60.5t119.5 -22.5t120.5 22.5t98.5 60.5t65.5 90.5t24.5 111.5t-24.5 111.5t-65.5 91.5t-98 61.5t-121 22.5q-63 0 -119.5 -22.5t-97.5 -61.5t-65.5 -91.5t-24.5 -111.5z M293 1032q0 -49 21.5 -93t58.5 -76t87 -51t105 -19q57 0 107.5 19t88.5 51t59.5 76t21.5 93t-21.5 93t-59.5 76t-88 51.5t-108 19.5q-55 0 -105 -19.5t-87 -51.5t-58.5 -76t-21.5 -93z" />
<glyph unicode="9" d="M104 946q0 90 30 171t86 142.5t137 97.5t184 36q223 0 356 -161t133 -476q0 -201 -34.5 -347.5t-99.5 -241.5t-157 -141t-204 -46q-92 0 -165 27.5t-125 73.5t-83 106.5t-41 123.5h137q8 -39 30.5 -76.5t57.5 -67.5t82 -48.5t102 -18.5q104 0 174 58.5t111 147.5 t57.5 192.5t18.5 195.5q-33 -59 -78 -100t-93 -66.5t-95 -37t-84 -11.5q-102 0 -182 36t-137.5 98.5t-87.5 147.5t-30 185zM254 946q0 -68 20.5 -127t58.5 -105t90 -73t118 -27q76 0 133 30t94 78t55.5 106.5t18.5 113.5q0 72 -24.5 132.5t-66.5 105.5t-96.5 69.5 t-113.5 24.5q-61 0 -114.5 -25.5t-91.5 -69.5t-59.5 -104.5t-21.5 -128.5z" />
<glyph unicode=":" horiz-adv-x="395" d="M123 0v197h192v-197h-192zM123 819v199h192v-199h-192z" />
<glyph unicode=";" horiz-adv-x="415" d="M117 -225q66 27 83 67.5t17 106.5v51h-74v197h193v-248q0 -92 -46 -153.5t-122 -90.5zM143 819v199h193v-199h-193z" />
<glyph unicode="&#x3c;" horiz-adv-x="1165" d="M127 512v111l946 409v-133l-811 -332q205 -82 406.5 -165t404.5 -164v-136z" />
<glyph unicode="=" horiz-adv-x="1247" d="M127 461v114h1028v-114h-1028zM127 848v113h1028v-113h-1028z" />
<glyph unicode="&#x3e;" horiz-adv-x="1165" d="M127 102v134l813 327l-813 336v133l946 -409v-111z" />
<glyph unicode="?" horiz-adv-x="1034" d="M125 1024q4 100 36 183t87 142.5t130 92.5t165 33q109 0 185.5 -33t124.5 -86t69.5 -121t21.5 -139q0 -66 -23.5 -119t-59.5 -99.5t-78 -88t-77.5 -86t-59 -93.5t-23.5 -108v-90h-177v98q0 63 26 113.5t66 94.5t85 85t85 85t65.5 94t25.5 114q0 53 -15.5 100t-47 82 t-80 55.5t-113.5 20.5q-121 0 -196 -91.5t-83 -238.5h-139zM446 0v180h177v-180h-177z" />
<glyph unicode="@" horiz-adv-x="1611" d="M133 512q0 176 61.5 317.5t165 240.5t239.5 152.5t288 53.5q123 0 238.5 -44t204.5 -123t142.5 -188.5t53.5 -240.5q0 -133 -40 -235.5t-106.5 -172t-151.5 -104.5t-175 -35q-53 0 -85 34t-36 81q-43 -61 -96.5 -88t-124.5 -27q-66 0 -118 25.5t-88 67.5t-55.5 95.5 t-19.5 108.5q0 90 32 182.5t88 167t136 121.5t176 47q47 0 84 -16.5t62.5 -40t43 -48t23.5 -42.5l41 117h125l-160 -556q-10 -37 -10 -59q0 -51 41 -51q25 0 73 15.5t97 61.5t86 127t37 214q0 109 -43 198.5t-115.5 154t-167 100.5t-194.5 36q-133 0 -247 -48t-199 -134 t-133 -204t-48 -255q0 -131 50 -238.5t133 -183.5t190.5 -116.5t224.5 -40.5q158 0 277.5 63.5t191.5 169.5h125q-35 -90 -99.5 -155.5t-147.5 -109.5t-180 -65.5t-198 -21.5q-133 0 -258 51t-221 143t-154.5 219t-58.5 279zM563 449q0 -37 9.5 -73t29 -64.5t50 -46 t73.5 -17.5q78 0 149.5 54.5t104.5 154.5q16 53 25.5 88t14.5 56.5t6 32.5t1 19q0 78 -47 126t-115 48q-55 0 -109.5 -36.5t-97.5 -93t-68.5 -123t-25.5 -125.5z" />
<glyph unicode="A" horiz-adv-x="1251" d="M-2 0l522 1417h207l516 -1417h-160l-157 434h-609l-157 -434h-162zM367 567h507l-253 711z" />
<glyph unicode="B" horiz-adv-x="1241" d="M125 0v1417h551q92 0 164.5 -26.5t124 -71.5t78 -105.5t26.5 -128.5q0 -102 -51 -188t-160 -143q82 -23 138.5 -60t91 -83t50 -100t15.5 -112q0 -82 -34 -154.5t-91 -127t-132 -86t-155 -31.5h-616zM276 137h402q57 0 114.5 16.5t103.5 49.5t74.5 83t28.5 120 q0 57 -25.5 108t-74.5 90t-118.5 61.5t-157.5 22.5h-347v-551zM276 821h365q63 0 116.5 19.5t91.5 52.5t59.5 78t21.5 94q0 92 -62.5 153.5t-199.5 61.5h-392v-459z" />
<glyph unicode="C" horiz-adv-x="1445" d="M127 729q0 139 43 271.5t124 233.5t198.5 162.5t267.5 61.5q127 0 226 -33.5t173 -93t123 -141.5t78 -180h-160q-55 160 -162.5 237.5t-277.5 77.5q-106 0 -194.5 -48t-152 -131t-99 -191.5t-35.5 -227.5q0 -162 41.5 -281.5t110.5 -197.5t155 -117t176 -39q92 0 168 34 t131 89t91 126t50 144h154q-20 -111 -68.5 -206t-124.5 -166.5t-176 -112.5t-225 -41q-145 0 -262 52t-200 151.5t-128 242t-45 324.5z" />
<glyph unicode="D" horiz-adv-x="1351" d="M127 0v1417h526q141 0 254 -56t192 -152.5t122 -224.5t43 -273q0 -152 -45 -281t-126 -225t-193 -150.5t-247 -54.5h-526zM276 137h316q113 0 207 39t163.5 111.5t108.5 179t39 242.5q0 147 -39 254.5t-108.5 178t-165 104.5t-205.5 34h-316v-1143z" />
<glyph unicode="E" horiz-adv-x="1193" d="M125 0v1417h946v-137h-795v-479h748v-137h-748v-527h830v-137h-981z" />
<glyph unicode="F" horiz-adv-x="1134" d="M125 0v1417h924v-137h-773v-479h672v-137h-672v-664h-151z" />
<glyph unicode="G" horiz-adv-x="1466" d="M127 711q0 139 43 273t124 239.5t198.5 170t267.5 64.5q127 0 226 -33.5t173 -93t123 -141.5t78 -180h-160q-55 160 -162.5 237.5t-277.5 77.5q-106 0 -194.5 -49t-152 -133t-99 -195.5t-35.5 -236.5q0 -145 38.5 -260t105 -194t156 -120t187.5 -41q86 0 169 43 t148.5 115t105.5 164t44 190h-440v133h583v-741h-92l-45 252q-35 -55 -88 -106.5t-115.5 -92.5t-130 -65.5t-135.5 -24.5q-147 0 -267 57.5t-203 158t-128 237.5t-45 295z" />
<glyph unicode="H" horiz-adv-x="1286" d="M125 0v1417h151v-616h771v616h151v-1417h-151v668h-771v-668h-151z" />
<glyph unicode="I" horiz-adv-x="518" d="M201 0v1417h151v-1417h-151z" />
<glyph unicode="J" horiz-adv-x="983" d="M125 330v110h151v-92q0 -66 21.5 -114t55.5 -79.5t76 -47t85 -15.5q33 0 74 12.5t76.5 43t59.5 81t24 123.5v1065h151v-1046q0 -111 -31.5 -189t-85 -127t-124 -72.5t-148.5 -23.5q-74 0 -143.5 23.5t-124 70.5t-86 116t-31.5 161z" />
<glyph unicode="K" horiz-adv-x="1308" d="M125 0v1417h151v-725l723 725h199l-561 -557l594 -860h-191l-508 752l-256 -252v-500h-151z" />
<glyph unicode="L" horiz-adv-x="1075" d="M125 0v1417h151v-1280h713v-137h-864z" />
<glyph unicode="M" horiz-adv-x="1517" d="M127 0v1417h195l450 -1208l459 1208h196v-1417h-151v1163l-426 -1163h-137l-434 1163v-1163h-152z" />
<glyph unicode="N" horiz-adv-x="1288" d="M125 0v1417h203l721 -1224v1224h151v-1417h-203l-721 1225v-1225h-151z" />
<glyph unicode="O" horiz-adv-x="1488" d="M127 707q0 164 42 300t123 234t199.5 153.5t270.5 55.5q154 0 271.5 -55.5t199.5 -153.5t124 -234t42 -300t-42 -300.5t-124 -234.5t-200 -153.5t-271 -55.5q-152 0 -270.5 55.5t-199.5 153.5t-123 234.5t-42 300.5zM279 707q0 -143 36.5 -257t102 -192t153.5 -120 t191 -42q102 0 190 42t153.5 120t103.5 192t38 257t-38 256.5t-103.5 191.5t-153.5 120t-190 42t-190.5 -42t-154 -120t-102 -191.5t-36.5 -256.5z" />
<glyph unicode="P" horiz-adv-x="1175" d="M125 0v1417h537q104 0 184 -35.5t134 -93t82 -130.5t28 -144q0 -78 -29 -150.5t-83 -130t-134 -91.5t-182 -34h-386v-608h-151zM276 741h386q55 0 105 21.5t88 58.5t60.5 87t22.5 108q0 57 -21.5 105t-58.5 83t-87 55.5t-109 20.5h-386v-539z" />
<glyph unicode="Q" horiz-adv-x="1513" d="M127 707q0 164 42 300t123 234t199.5 153.5t270.5 55.5q154 0 271.5 -55.5t199.5 -153.5t124 -234t42 -300q0 -166 -45 -304.5t-129 -238.5l205 -203l-95 -92l-207 205q-152 -111 -366 -111q-152 0 -270.5 55.5t-199.5 153.5t-123 234.5t-42 300.5zM279 707 q0 -143 36.5 -257t102 -192t153.5 -120t191 -42q147 0 260 82l-145 146l94 96l147 -150q59 78 94 189t35 248q0 143 -36.5 256.5t-102.5 191.5t-155 120t-191 42t-190.5 -42t-154 -120t-102 -191.5t-36.5 -256.5z" />
<glyph unicode="R" horiz-adv-x="1241" d="M125 0v1417h580q104 0 184 -35.5t134 -93t82 -130t28 -144.5q0 -104 -50.5 -198.5t-148.5 -149.5q55 -14 90 -43t55.5 -67t27.5 -83t7 -90v-215q0 -47 12.5 -90t32.5 -78h-164q-20 33 -25 80t-5 80v225q0 41 -14.5 81t-45.5 71.5t-80 51t-120 19.5h-429v-608h-151z M276 741h429q55 0 105 21.5t88 58.5t60.5 87t22.5 108q0 57 -20.5 105t-57.5 83t-88 55.5t-110 20.5h-429v-539z" />
<glyph unicode="S" horiz-adv-x="1253" d="M125 442h156q6 -76 34.5 -140t77.5 -110.5t115.5 -72t146.5 -25.5q70 0 135.5 15.5t114.5 49.5t79 88t30 132q0 63 -32 107t-84 76t-118.5 55.5t-134.5 44.5q-86 25 -171 56.5t-153.5 79.5t-111.5 118.5t-43 177.5q0 88 35 155.5t97 113.5t148 69.5t191 23.5 q137 0 229 -40t147.5 -101.5t81 -136t29.5 -144.5h-155q-6 70 -34 124t-73 91t-102.5 55.5t-122.5 18.5q-59 0 -116.5 -12.5t-102.5 -40t-73 -70.5t-28 -106q0 -66 32 -111t84 -78t120 -56.5t139 -45.5q86 -27 171 -57.5t151.5 -77.5t108.5 -116t42 -173t-37.5 -182 t-106.5 -131.5t-162 -80t-204 -26.5q-100 0 -194 34t-168 96.5t-120 152.5t-48 200z" />
<glyph unicode="T" horiz-adv-x="1302" d="M125 1280v137h1089v-137h-469v-1280h-151v1280h-469z" />
<glyph unicode="U" horiz-adv-x="1263" d="M125 473v944h151v-954q0 -86 32 -155.5t83 -117t115.5 -73t130.5 -25.5q70 0 139.5 23.5t124.5 69.5t89 115t34 159v958h152v-948q0 -123 -48.5 -218t-125 -159.5t-172 -98.5t-191.5 -34q-92 0 -183 33t-165 97.5t-120 160.5t-46 223z" />
<glyph unicode="V" horiz-adv-x="1150" d="M0 1417h166l405 -1220l406 1220h166l-473 -1417h-189z" />
<glyph unicode="W" horiz-adv-x="1740" d="M2 1417h158l282 -1147l351 1147h143l346 -1136q70 285 143.5 568.5t143.5 567.5h157l-358 -1417h-156l-348 1180l-348 -1180h-156z" />
<glyph unicode="X" horiz-adv-x="1120" d="M16 0l455 711l-451 706h168l367 -575l369 575h172l-455 -708q113 -174 227.5 -354.5t227.5 -354.5h-172l-367 578l-369 -578h-172z" />
<glyph unicode="Y" horiz-adv-x="1167" d="M-4 1417h174l414 -715l405 715h174l-508 -848v-569h-151v569z" />
<glyph unicode="Z" horiz-adv-x="1280" d="M125 0v150l903 1130h-903v137h1067v-176l-889 -1104h889v-137h-1067z" />
<glyph unicode="[" horiz-adv-x="458" d="M123 -287v1864h340v-98h-203v-1665h203v-101h-340z" />
<glyph unicode="\" horiz-adv-x="589" d="M0 1468h113l477 -1509h-119z" />
<glyph unicode="]" horiz-adv-x="415" d="M-6 -186h203v1665h-203v98h342v-1864h-342v101z" />
<glyph unicode="^" horiz-adv-x="899" d="M-4 924l346 510h203l350 -510h-123l-328 422l-327 -422h-121z" />
<glyph unicode="_" horiz-adv-x="1198" d="M127 -303h979v-117h-979v117z" />
<glyph unicode="`" horiz-adv-x="409" d="M123 934v256q0 104 55 172t152 90v-113q-57 -18 -74.5 -54t-17.5 -95v-27h92v-229h-207z" />
<glyph unicode="a" horiz-adv-x="1157" d="M127 266q0 86 49 141.5t123 90t161 57.5t160.5 45.5t123 53t49.5 81.5q0 90 -64.5 129t-181.5 39q-90 0 -156.5 -37t-79.5 -121h-157q4 76 40.5 130.5t93 90t126 53t137.5 17.5q76 0 146.5 -16t126 -52t88 -93.5t32.5 -139.5v-536q0 -33 21.5 -60.5t52.5 -27.5 q10 0 21.5 3t27.5 7v-123q-33 -10 -54.5 -14t-49.5 -4q-66 0 -108 48t-48 148q-49 -63 -95 -101t-93.5 -59.5t-94.5 -28.5t-96 -7q-63 0 -117.5 20t-95.5 57t-64.5 90.5t-23.5 118.5zM276 274q0 -43 15.5 -74.5t40 -51t55.5 -28.5t64 -9q94 0 184 57t158 174v233 q-31 -33 -81 -55t-107.5 -39.5t-116 -34t-105.5 -38t-77 -54t-30 -80.5z" />
<glyph unicode="b" horiz-adv-x="1073" d="M125 0v1425h151v-555q53 72 133 119t154 47q104 0 183 -42t131.5 -113.5t79 -168t26.5 -206.5q0 -111 -26.5 -207t-81 -168t-133 -113t-183.5 -41q-80 0 -155.5 44.5t-127.5 132.5v-154h-151zM276 506q0 -82 18.5 -153.5t53.5 -126t87 -85t118 -30.5q68 0 120 30.5t88 85 t54.5 126t18.5 153.5t-18.5 154.5t-54.5 126t-88 85t-120 31.5q-66 0 -116 -29.5t-86 -82t-54 -121t-21 -148.5v-16z" />
<glyph unicode="c" horiz-adv-x="1075" d="M127 526q0 106 31.5 199.5t90 163t141.5 108.5t185 39q88 0 159 -24.5t121 -69.5t83 -105.5t47 -131.5h-160q-31 111 -92 154.5t-160 43.5q-72 0 -126 -30.5t-93 -83t-58.5 -120t-19.5 -143.5q0 -78 20.5 -152.5t58.5 -133t92.5 -94t121.5 -35.5q55 0 97.5 19.5t74 53 t52 78.5t30.5 96h164q-23 -180 -133.5 -280.5t-290.5 -100.5q-115 0 -196.5 49.5t-135 127t-79 176t-25.5 196.5z" />
<glyph unicode="d" horiz-adv-x="1073" d="M125 506q0 111 26.5 207t80 167.5t131 113.5t182.5 42q37 0 77 -12t77.5 -34.5t72.5 -52.5t62 -67v555h149v-1425h-149v154q-53 -88 -129 -132.5t-156 -44.5q-104 0 -183 41t-132.5 113t-81 168t-27.5 207zM276 506q0 -82 18.5 -153.5t54.5 -126t88 -85t118 -30.5 q68 0 119 30.5t87 85t54.5 126t18.5 153.5v16q-2 80 -21.5 148.5t-54.5 121t-86 82t-117 29.5t-118 -31.5t-88 -85t-54.5 -126t-18.5 -154.5z" />
<glyph unicode="e" horiz-adv-x="1132" d="M127 524q0 102 33 194.5t93 163t146 112.5t193 42q104 0 187 -37.5t141.5 -103.5t90 -157t31.5 -197v-60h-757q2 -72 25.5 -138.5t65.5 -118.5t97 -82.5t121 -30.5q219 0 291 204h137q-16 -80 -57 -142t-98.5 -105t-128 -65.5t-144.5 -22.5q-106 0 -192.5 44 t-147.5 118.5t-94 173t-33 208.5zM285 598h602q-2 63 -23.5 119.5t-60.5 97.5t-95.5 64.5t-125.5 23.5q-63 0 -116.5 -25.5t-93.5 -67.5t-62.5 -97.5t-24.5 -114.5z" />
<glyph unicode="f" horiz-adv-x="679" d="M78 885v133h174v250q0 86 57.5 142t159.5 56q27 0 61.5 -10t65.5 -29v-118q-49 22 -76 22h-2q-51 0 -83 -22.5t-32 -69.5v-221h179v-133h-179v-885h-151v885h-174z" />
<glyph unicode="g" horiz-adv-x="1099" d="M127 510q0 111 30.5 206t88 166.5t137.5 112.5t178 41q70 0 151 -33.5t146 -130.5v146h152v-1043q0 -104 -36 -185t-96.5 -134t-138 -81t-159.5 -28q-143 0 -251 74t-163 236h151q41 -92 105.5 -134t157.5 -42q57 0 107 21.5t88 59t60.5 91t22.5 114.5v178 q-53 -84 -129 -126t-154 -42q-104 0 -187 42t-141.5 115t-89 169t-30.5 207zM276 510q0 -82 23 -154.5t63.5 -127t97 -86t122.5 -31.5t117 30.5t86.5 85t54 126t18.5 153.5v16q-2 80 -21.5 148.5t-54 121t-86 82t-114.5 29.5q-66 0 -122.5 -30.5t-97 -84t-63.5 -125 t-23 -153.5z" />
<glyph unicode="h" horiz-adv-x="1032" d="M125 0v1425h151v-551q63 92 149.5 127t184.5 35q74 0 134.5 -23.5t104.5 -64.5t68.5 -96t24.5 -121v-731h-149v705q0 53 -18.5 91t-48.5 61.5t-69 34.5t-82 11q-53 0 -106 -22.5t-96 -60.5t-70 -90t-27 -112v-618h-151z" />
<glyph unicode="i" horiz-adv-x="434" d="M164 0v1018h149v-1018h-149zM164 1249v176h149v-176h-149z" />
<glyph unicode="j" horiz-adv-x="352" d="M-43 -295q23 -10 34 -13t21 -3q59 0 84 45t25 106v1178h151v-1206q0 -129 -66.5 -192.5t-166.5 -63.5q-20 0 -41 4t-41 14v131zM121 1249v176h151v-176h-151z" />
<glyph unicode="k" horiz-adv-x="1032" d="M125 0v1425h151v-878l482 471h184l-373 -375l381 -643h-176l-311 535l-187 -187v-348h-151z" />
<glyph unicode="l" horiz-adv-x="434" d="M164 0v1425h149v-1425h-149z" />
<glyph unicode="m" horiz-adv-x="1615" d="M129 0v1018h150v-160q66 96 153.5 137t165.5 41t145.5 -41t124.5 -145q59 100 151.5 144t178.5 44q70 0 128 -23.5t101 -65.5t67 -98t24 -122v-729h-150v686q0 63 -18.5 105.5t-47 67t-64.5 34.5t-71 10q-47 0 -94 -21.5t-86 -58.5t-62.5 -87t-23.5 -109v-627h-149v686 q0 63 -18.5 105.5t-46.5 67t-61.5 34.5t-64.5 10q-59 0 -110.5 -27.5t-90 -69.5t-60 -93t-21.5 -97v-616h-150z" />
<glyph unicode="n" horiz-adv-x="1030" d="M125 0v1018h151v-154q78 92 170.5 132t188.5 40q145 0 225 -82t80 -223v-731h-149v713q0 104 -49.5 147t-135.5 43q-70 0 -130 -24.5t-104 -64.5t-70 -93t-26 -109v-612h-151z" />
<glyph unicode="o" horiz-adv-x="1142" d="M127 508q0 109 30.5 205t89 167.5t144.5 113.5t197 42t197.5 -42t146 -113.5t90.5 -168t31 -204.5q0 -109 -31 -205t-90.5 -168t-146.5 -112.5t-197 -40.5q-111 0 -197 40.5t-144.5 112.5t-89 168t-30.5 205zM276 508q0 -82 21.5 -153.5t61.5 -125t98.5 -84t130.5 -30.5 t130 30.5t99 84t62.5 125t21.5 153.5t-21.5 153.5t-62.5 125t-99.5 85t-129.5 31.5q-72 0 -130.5 -31.5t-98.5 -85t-61.5 -125t-21.5 -153.5z" />
<glyph unicode="p" horiz-adv-x="1105" d="M127 -418v1436h149v-154q53 86 138.5 131t165.5 45q104 0 185 -41t136 -112.5t85 -167.5t30 -207t-29 -207t-84 -167.5t-135 -113.5t-184 -42q-78 0 -165 44t-143 128v-572h-149zM276 496q2 -80 25 -148.5t61.5 -121t92 -82t118.5 -29.5q66 0 120.5 31.5t92 85t58 126 t20.5 154.5t-20.5 153.5t-58 126t-92 85t-120.5 30.5t-121 -30.5t-94 -85t-60.5 -126t-21.5 -153.5v-16z" />
<glyph unicode="q" horiz-adv-x="1105" d="M127 512q0 111 28.5 207t84 167.5t136.5 112.5t185 41q80 0 165 -45t138 -131v154h152v-1436h-152v572q-55 -84 -142 -128t-165 -44q-104 0 -184 42t-134.5 113.5t-83 167.5t-28.5 207zM276 512q0 -82 20.5 -154.5t58.5 -126t92.5 -85t119.5 -31.5q66 0 120 29.5t93 82 t60.5 121t23.5 148.5v16q0 82 -21.5 153.5t-60.5 126t-93 85t-122 30.5q-66 0 -120 -30.5t-92 -85t-58.5 -126t-20.5 -153.5z" />
<glyph unicode="r" horiz-adv-x="634" d="M125 0v1018h149l-6 -156q94 174 262 174q16 0 35 -3t35 -9v-154q-49 16 -74 17q-59 0 -106 -22.5t-80 -60.5t-49.5 -87t-16.5 -103v-614h-149z" />
<glyph unicode="s" horiz-adv-x="1009" d="M125 315h156q4 -113 69.5 -158.5t165.5 -45.5q41 0 86 7t82 25.5t61.5 50t24.5 78.5q0 57 -45 93t-112.5 64t-146.5 52.5t-146.5 61.5t-112.5 90t-45 139q0 68 29.5 118t78.5 82t112.5 48t133.5 16q78 0 145.5 -16t117.5 -50t79 -87.5t33 -124.5q-18 0 -41 1t-39 1h-72 q-10 82 -73.5 112.5t-149.5 30.5q-98 0 -150.5 -37t-52.5 -96q0 -53 45 -88t113 -62.5t146.5 -54t146 -62.5t113 -87t45.5 -127q0 -84 -33 -142.5t-88.5 -95.5t-129 -54t-155.5 -17q-78 0 -147.5 20t-122.5 62t-86 105.5t-35 147.5z" />
<glyph unicode="t" horiz-adv-x="622" d="M47 889v129h158v303h151v-303h158v-129h-158v-660q0 -68 32 -93t81 -25q31 0 70 8v-123q-59 -16 -129 -16q-41 0 -78 10t-65.5 33.5t-45 61.5t-16.5 91v713h-158z" />
<glyph unicode="u" horiz-adv-x="1030" d="M125 305v731h151v-712q0 -104 49.5 -147.5t135.5 -43.5q68 0 128 24.5t105 64.5t71 93.5t26 108.5v612h149v-1018h-149v154q-78 -92 -170.5 -132t-190.5 -40q-143 0 -224 82t-81 223z" />
<glyph unicode="v" horiz-adv-x="921" d="M-2 1018h162l293 -840l301 840h159l-374 -1018h-164z" />
<glyph unicode="w" horiz-adv-x="1390" d="M2 1018h154l219 -832l229 832h168l223 -832l226 832h153l-291 -1018h-159l-236 848l-235 -848h-158z" />
<glyph unicode="x" horiz-adv-x="925" d="M14 0l355 508l-353 510h181l262 -377l260 377h182l-352 -510l352 -508h-182l-260 377l-262 -377h-183z" />
<glyph unicode="y" horiz-adv-x="905" d="M-2 1018h164l289 -830l286 830h158l-438 -1243q-20 -59 -48 -101.5t-60 -69t-63.5 -37.5t-62.5 -11q-29 0 -55.5 4t-54.5 14v131q16 -6 40.5 -13t49.5 -7q27 0 48 16t36.5 41t27 51.5t17.5 46.5l47 148z" />
<glyph unicode="z" horiz-adv-x="1030" d="M125 0v131l610 741h-610v146h815v-144l-618 -737h618v-137h-815z" />
<glyph unicode="{" horiz-adv-x="620" d="M125 567v133h45q43 0 69.5 20.5t41 50.5t19.5 64.5t5 63.5v477q0 86 57.5 142.5t159.5 56.5q25 0 60.5 -10.5t66.5 -28.5v-119q-51 23 -78 23q-51 0 -82.5 -22.5t-31.5 -69.5v-504q0 -35 -13.5 -69t-36 -63.5t-54 -51t-70.5 -27.5q37 -8 68.5 -29.5t55 -50.5t37 -61.5 t13.5 -65.5v-504q0 -49 31.5 -70.5t82.5 -21.5q10 0 32 5t46 15v-116q-31 -18 -66.5 -28.5t-60.5 -10.5q-102 0 -159.5 56t-57.5 143v475q0 29 -5 63.5t-19.5 64t-41 50t-69.5 20.5h-45z" />
<glyph unicode="|" horiz-adv-x="370" d="M129 -281v1905h121v-1905h-121z" />
<glyph unicode="}" horiz-adv-x="583" d="M-25 -150q25 -10 46.5 -15t31.5 -5q51 0 83 21.5t32 70.5v504q0 33 13.5 65.5t36 61.5t54 50.5t68.5 29.5q-37 6 -68.5 27.5t-55 51t-36 63.5t-12.5 69v504q0 47 -32 69.5t-83 22.5q-27 0 -78 -23v119q31 18 66 28.5t61 10.5q102 0 159.5 -56.5t57.5 -142.5v-477 q0 -29 5.5 -63.5t19.5 -64.5t41 -50.5t70 -20.5h45v-133h-45q-43 0 -70 -20.5t-41 -50t-19.5 -64.5t-5.5 -63v-475q0 -86 -57 -142.5t-160 -56.5q-27 0 -61.5 10t-65.5 29v116z" />
<glyph unicode="~" horiz-adv-x="1265" d="M61 438q2 84 23.5 163t62.5 139.5t103.5 96t144.5 35.5q68 0 117 -18t85 -47t63.5 -64.5t52.5 -70.5q43 -59 78.5 -96t95.5 -37q37 0 71.5 22.5t60 61.5t42 92t20.5 116h117q-6 -205 -95 -315t-231 -110q-53 0 -92 15t-69.5 38.5t-54 54.5t-44.5 61q-43 66 -91 116 t-126 50q-57 0 -98 -29.5t-66.5 -74.5t-39 -98.5t-15.5 -100.5h-115z" />
<glyph unicode="&#xa9;" horiz-adv-x="1579" d="M129 659q0 139 53.5 262t145.5 215.5t215 145.5t262 53t262 -53t215 -145.5t145.5 -215t53.5 -262.5q0 -141 -53.5 -264t-145.5 -215t-215 -145t-262 -53t-262 53t-215 145t-145.5 215t-53.5 264zM223 659q0 -121 46 -227t125 -185t184.5 -125t226.5 -46t226.5 46 t184 125t124.5 185.5t46 226.5q0 119 -46 225.5t-124.5 185.5t-184 125t-226.5 46t-226.5 -46t-184.5 -125t-125 -185.5t-46 -225.5zM459 657q0 174 92 283t264 109q111 0 184.5 -58.5t114.5 -150.5l-88 -31q-33 66 -84 105.5t-127 39.5q-133 0 -196.5 -83t-63.5 -214 q0 -135 63.5 -217t196.5 -82q76 0 127 40t84 106l88 -31q-41 -92 -114.5 -150.5t-184.5 -58.5q-86 0 -151.5 29t-111.5 81t-69.5 123.5t-23.5 159.5z" />
<glyph unicode="&#xad;" horiz-adv-x="665" d="M125 500v145h457v-145h-457z" />
<glyph unicode="&#xbc;" horiz-adv-x="1675" d="M129 1120v103q74 0 128 25.5t89 60t53.5 73.5t22.5 66h133v-830h-135v627q-47 -74 -120 -99.5t-171 -25.5zM547 -39l469 1487h135l-465 -1487h-139zM934 195v129l387 493h129v-512h127v-110h-127v-195h-135v195h-381zM1069 305h246v320z" />
<glyph unicode="&#xbd;" horiz-adv-x="1665" d="M129 1120v103q74 0 128 25.5t89 60t53.5 73.5t22.5 66h133v-830h-135v627q-47 -74 -120 -99.5t-171 -25.5zM481 -39l471 1487h135l-466 -1487h-140zM928 0q8 90 36.5 152.5t75.5 109.5t113 86t150 80q43 23 73.5 63.5t30.5 86.5q0 68 -42 92t-108 24q-82 0 -121.5 -50 t-39.5 -128h-133q0 143 78.5 226t232.5 83q70 0 124 -21.5t92 -57t57.5 -83t19.5 -96.5q0 -80 -49.5 -133t-108.5 -92q-18 -14 -48 -28.5t-58 -30.5q-31 -16 -72 -38t-74 -50q-33 -25 -47 -56h457v-139h-639z" />
<glyph unicode="&#xbe;" horiz-adv-x="1685" d="M127 891h147q8 -47 23.5 -78t38 -47t53.5 -22.5t68 -6.5q68 0 118 27t50 90q0 59 -45 95t-123 36h-84v123h82q72 0 101.5 35t29.5 76q0 53 -37 74.5t-96 21.5q-76 0 -111 -36t-45 -101h-139q14 127 81.5 198.5t215.5 71.5q127 0 202.5 -61.5t75.5 -161.5 q0 -59 -27.5 -101.5t-76.5 -66.5q57 -23 100 -70t43 -133q0 -61 -25.5 -107.5t-68.5 -77t-101.5 -47t-121.5 -16.5q-80 0 -137.5 18.5t-95.5 54.5t-60.5 89t-34.5 123zM588 -39l471 1487h135l-467 -1487h-139zM944 195v129l387 493h129v-512h127v-110h-127v-195h-135v195 h-381zM1079 305h246v320z" />
<glyph unicode="&#x2000;" horiz-adv-x="812" />
<glyph unicode="&#x2001;" horiz-adv-x="1624" />
<glyph unicode="&#x2002;" horiz-adv-x="812" />
<glyph unicode="&#x2003;" horiz-adv-x="1624" />
<glyph unicode="&#x2004;" horiz-adv-x="541" />
<glyph unicode="&#x2005;" horiz-adv-x="406" />
<glyph unicode="&#x2006;" horiz-adv-x="270" />
<glyph unicode="&#x2007;" horiz-adv-x="270" />
<glyph unicode="&#x2008;" horiz-adv-x="203" />
<glyph unicode="&#x2009;" horiz-adv-x="324" />
<glyph unicode="&#x200a;" horiz-adv-x="90" />
<glyph unicode="&#x2010;" horiz-adv-x="665" d="M125 500v145h457v-145h-457z" />
<glyph unicode="&#x2011;" horiz-adv-x="665" d="M125 500v145h457v-145h-457z" />
<glyph unicode="&#x2012;" horiz-adv-x="665" d="M125 500v145h457v-145h-457z" />
<glyph unicode="&#x2013;" horiz-adv-x="1384" d="M127 500v145h1163v-145h-1163z" />
<glyph unicode="&#x2014;" horiz-adv-x="1634" d="M129 500v145h1407v-145h-1407z" />
<glyph unicode="&#x2018;" horiz-adv-x="409" d="M123 893v258q0 104 55 171t152 89v-113q-57 -16 -74.5 -53t-17.5 -94v-29h92v-229h-207z" />
<glyph unicode="&#x2019;" horiz-adv-x="409" d="M123 891v110q57 20 74.5 56.5t17.5 93.5v27h-92v231h207v-258q0 -104 -55.5 -172t-151.5 -88z" />
<glyph unicode="&#x201c;" horiz-adv-x="724" d="M125 934v256q0 104 55.5 172t151.5 90v-113q-59 -18 -75.5 -54t-16.5 -95v-27h92v-229h-207zM434 934v256q0 104 55.5 172t151.5 90v-113q-59 -18 -75.5 -54t-16.5 -95v-27h92v-229h-207z" />
<glyph unicode="&#x201d;" horiz-adv-x="724" d="M125 891v110q57 20 74.5 56.5t17.5 93.5v27h-92v231h207v-258q0 -104 -56.5 -172t-150.5 -88zM434 891v110q57 20 73.5 56.5t16.5 93.5v27h-90v231h207v-258q0 -104 -56.5 -172t-150.5 -88z" />
<glyph unicode="&#x2022;" horiz-adv-x="665" d="M133 602q0 45 17.5 86t48 72t70.5 49t87 18q45 0 86 -18t72 -49t48.5 -72t17.5 -86t-17.5 -86t-48.5 -71.5t-72 -48t-86 -17.5q-47 0 -87 17.5t-70.5 48t-48 71.5t-17.5 86z" />
<glyph unicode="&#x202f;" horiz-adv-x="324" />
<glyph unicode="&#x205f;" horiz-adv-x="406" />
<glyph unicode="&#x25fc;" horiz-adv-x="1013" d="M0 0v1014h1014v-1014h-1014z" />
</font>
</defs>
</svg>
